<?xml version="1.0" encoding="UTF-8"?>
<svg
  width="140px"
  height="155px"
  viewBox="0 0 140 155"
  version="1.1"
  xmlns="http://www.w3.org/2000/svg"
  xmlns:xlink="http://www.w3.org/1999/xlink"
>
  <title>无数据</title>
  <g id="页面-1" stroke="none" stroke-width="1" fill="none" fill-rule="evenodd">
    <g
      id="节超分析机楼配置工具-首页-当前无数据-1366"
      transform="translate(-627.000000, -382.000000)"
    >
      <g transform="translate(0.000000, -38.000000)" id="-mockplus-">
        <g transform="translate(272.000000, 221.000000)">
          <g id="数据展示/页面异常/暂无数据">
            <g id="无数据提示" transform="translate(348.000000, 196.500000)">
              <g id="无数据">
                <rect
                  id="矩形"
                  fill="#000000"
                  opacity="0"
                  x="0"
                  y="0"
                  width="160"
                  height="160"
                ></rect>
                <path
                  d="M141.993355,94.6233312 L125.174419,94.6233312 L125.174419,76.9362305 C125.174419,74.1804058 122.947467,71.9539486 120.19103,71.9539486 L71.1357973,71.9539486 L52.8685631,54.4848227 C52.6349668,54.2668478 52.323505,54.1422908 52.0120432,54.1422908 L12.4252492,54.1422908 C9.66881229,54.1422908 7.44186047,56.368748 7.44186047,59.1245727 L7.44186047,151.296788 C7.44186047,154.052613 9.66881229,156.27907 12.4252492,156.27907 L121.125415,156.27907 C123.149917,156.27907 124.987542,155.049069 125.750623,153.165144 L146.618563,101.473969 C146.852159,100.882323 146.976744,100.243968 146.976744,99.6056131 C146.976744,96.8497885 144.749792,94.6233312 141.993355,94.6233312 Z M48.0097591,65.3524251 L66.6351744,83.1640829 L113.961794,83.1640829 L113.961794,94.6233312 L34.5390365,94.6233312 C32.5145349,94.6233312 30.6769103,95.8533321 29.9138289,97.7372574 L18.654485,125.638036 L18.654485,65.3524251 L48.0097591,65.3524251 Z M79.2731513,52.2373769 C81.2026464,52.6475038 82.7206672,53.6201258 83.8272591,55.155272 C84.933851,56.6904182 85.2983093,58.3463525 84.9206447,60.1231243 C84.5537706,61.8491313 83.5526875,63.1882819 81.9173652,64.1406163 C80.282043,65.0929507 78.499661,65.3640504 76.5701659,64.9539236 C74.6152826,64.5384003 73.0986106,63.5594328 72.0201044,62.0169918 C70.9415982,60.4745507 70.5830899,58.8530422 70.9445688,57.1524177 C71.3168381,55.4010283 72.3092738,54.040143 73.9219055,53.0697209 C75.5345373,52.0992989 77.318268,51.8218537 79.2731513,52.2373769 Z M91.2322868,4.40059054 C97.0461604,5.63636751 101.281929,7.9294723 103.93972,11.2799737 C106.597512,14.6304751 107.443523,18.5773963 106.477781,23.1208559 C105.857332,26.0398382 104.625368,28.5900337 102.781852,30.7715188 C100.938336,32.9530039 98.1266234,35.0082402 94.3466291,36.9372896 C91.1715104,38.5173829 89.0786742,39.8433372 88.0680579,40.9151923 C87.0574415,41.9870474 86.3687067,43.3859575 86.0018325,45.1119644 L85.4434314,47.7390355 L75.3897964,45.6020694 L76.1505168,42.023161 C76.727804,39.3072383 77.7151697,37.0963523 79.1126435,35.3904368 C80.5101174,33.6845212 82.5816934,32.1152883 85.3274339,30.6826911 C88.4879549,29.0464365 90.6621915,27.6184046 91.8502088,26.3985525 C93.0382261,25.1787004 93.8048699,23.7565571 94.1501631,22.13208 C94.5494085,20.2537783 94.2076404,18.6159314 93.1248486,17.2184903 C92.0420569,15.8210491 90.269365,14.8606172 87.8067199,14.3371659 C83.0337582,13.3226415 78.2132495,14.1550299 73.3450492,16.8343559 L75.8376226,5.10772008 C80.9216122,3.5354312 86.0531156,3.29972371 91.2322868,4.40059054 Z"
                  id="形状"
                  fill="#DDE1E7"
                  fill-rule="nonzero"
                ></path>
              </g>
            </g>
          </g>
        </g>
      </g>
    </g>
  </g>
</svg>
